<svg width="61" height="61" viewBox="0 0 61 61" fill="none" xmlns="http://www.w3.org/2000/svg">
<path d="M45.1634 13.0869V8.10059C45.1634 5.3581 42.9196 3.11425 40.1771 3.11425H30.2044C27.4619 3.11425 25.2181 5.3581 25.2181 8.10059V13.0869H17.7386C14.9961 13.0869 12.7522 15.3308 12.7522 18.0733V40.5118C12.7522 43.2543 14.9961 45.4981 17.7386 45.4981H52.6429C55.3854 45.4981 57.6293 43.2543 57.6293 40.5118V18.0733C57.6293 15.3308 55.3854 13.0869 52.6429 13.0869H45.1634ZM40.1771 13.0869H30.2044V8.10059H40.1771V13.0869ZM5.27271 23.0596C3.90147 23.0596 2.77954 24.1815 2.77954 25.5528V50.4845C2.77954 53.2269 5.02339 55.4708 7.76588 55.4708H45.1634C46.5347 55.4708 47.6566 54.3489 47.6566 52.9776C47.6566 51.6064 46.5347 50.4845 45.1634 50.4845H7.76588V25.5528C7.76588 24.1815 6.64395 23.0596 5.27271 23.0596Z" fill="white"/>
</svg>
