<svg width="25" height="26" viewBox="0 0 25 26" fill="none" xmlns="http://www.w3.org/2000/svg">
<path d="M20.073 6.0654C18.6875 5.41956 17.1875 4.95081 15.625 4.67998C15.6113 4.67954 15.5977 4.68211 15.5851 4.68751C15.5725 4.69291 15.5613 4.70101 15.5521 4.71123C15.3646 5.05498 15.1459 5.5029 15 5.84665C13.3427 5.59665 11.6573 5.59665 10 5.84665C9.85421 5.49248 9.63546 5.05498 9.43754 4.71123C9.42712 4.6904 9.39587 4.67998 9.36462 4.67998C7.80212 4.95081 6.31254 5.41956 4.91671 6.0654C4.90629 6.0654 4.89587 6.07581 4.88546 6.08623C2.05212 10.3258 1.27087 14.4508 1.65629 18.5341C1.65629 18.555 1.66671 18.5758 1.68754 18.5862C3.56254 19.9612 5.36462 20.7946 7.14587 21.3466C7.17712 21.3571 7.20837 21.3466 7.21879 21.3258C7.63546 20.7529 8.01046 20.1487 8.33337 19.5133C8.35421 19.4716 8.33337 19.43 8.29171 19.4196C7.69796 19.1904 7.13546 18.9196 6.58337 18.6071C6.54171 18.5862 6.54171 18.5237 6.57296 18.4925C6.68754 18.4091 6.80212 18.3154 6.91671 18.2321C6.93754 18.2112 6.96879 18.2112 6.98962 18.2216C10.573 19.8571 14.4375 19.8571 17.9792 18.2216C18 18.2112 18.0313 18.2112 18.0521 18.2321C18.1667 18.3258 18.2813 18.4091 18.3959 18.5029C18.4375 18.5341 18.4375 18.5966 18.3855 18.6175C17.8438 18.9404 17.2709 19.2008 16.6771 19.43C16.6355 19.4404 16.625 19.4925 16.6355 19.5237C16.9688 20.1591 17.3438 20.7633 17.75 21.3362C17.7813 21.3466 17.8125 21.3571 17.8438 21.3466C19.6355 20.7946 21.4375 19.9612 23.3125 18.5862C23.3334 18.5758 23.3438 18.555 23.3438 18.5341C23.8021 13.8154 22.5834 9.72165 20.1146 6.08623C20.1042 6.07581 20.0938 6.0654 20.073 6.0654ZM8.87504 16.0446C7.80212 16.0446 6.90629 15.055 6.90629 13.8362C6.90629 12.6175 7.78129 11.6279 8.87504 11.6279C9.97921 11.6279 10.8542 12.6279 10.8438 13.8362C10.8438 15.055 9.96879 16.0446 8.87504 16.0446ZM16.1355 16.0446C15.0625 16.0446 14.1667 15.055 14.1667 13.8362C14.1667 12.6175 15.0417 11.6279 16.1355 11.6279C17.2396 11.6279 18.1146 12.6279 18.1042 13.8362C18.1042 15.055 17.2396 16.0446 16.1355 16.0446Z" fill="white"/>
</svg>
