<svg width="25" height="26" viewBox="0 0 25 26" fill="none" xmlns="http://www.w3.org/2000/svg">
<path d="M13.5709 2.59668C14.7427 2.5998 15.3375 2.60605 15.8511 2.62064L16.0532 2.62793C16.2865 2.63626 16.5167 2.64668 16.7948 2.65918C17.9032 2.71126 18.6594 2.88626 19.323 3.14355C20.0105 3.40814 20.5896 3.76647 21.1688 4.3446C21.6985 4.86532 22.1083 5.49521 22.3698 6.19043C22.6271 6.85397 22.8021 7.61022 22.8542 8.7196C22.8667 8.99668 22.8771 9.22689 22.8855 9.46126L22.8917 9.66335C22.9073 10.1758 22.9136 10.7706 22.9157 11.9425L22.9167 12.7196V14.0842C22.9193 14.844 22.9113 15.6038 22.8927 16.3633L22.8865 16.5654C22.8782 16.7998 22.8677 17.03 22.8552 17.3071C22.8032 18.4165 22.6261 19.1717 22.3698 19.8363C22.1091 20.5319 21.6991 21.1619 21.1688 21.6821C20.6479 22.2116 20.0181 22.6214 19.323 22.8831C18.6594 23.1404 17.9032 23.3154 16.7948 23.3675C16.5477 23.3792 16.3004 23.3896 16.0532 23.3988L15.8511 23.405C15.3375 23.4196 14.7427 23.4269 13.5709 23.429L12.7938 23.43H11.4302C10.6701 23.4326 9.90995 23.4246 9.15003 23.4061L8.94795 23.3998C8.70067 23.3904 8.45344 23.3797 8.20628 23.3675C7.09795 23.3154 6.3417 23.1404 5.67711 22.8831C4.98198 22.6221 4.35234 22.2121 3.83232 21.6821C3.30216 21.1616 2.89193 20.5316 2.63024 19.8363C2.37295 19.1727 2.19795 18.4165 2.14586 17.3071C2.13426 17.0599 2.12384 16.8127 2.11461 16.5654L2.10941 16.3633C2.09021 15.6038 2.08153 14.844 2.08336 14.0842V11.9425C2.08046 11.1827 2.0881 10.4229 2.10628 9.66335L2.11357 9.46126C2.12191 9.22689 2.13232 8.99668 2.14482 8.7196C2.19691 7.61022 2.37191 6.85501 2.6292 6.19043C2.89078 5.4945 3.30182 4.86441 3.83336 4.3446C4.35325 3.81488 4.98247 3.405 5.67711 3.14355C6.3417 2.88626 7.09691 2.71126 8.20628 2.65918C8.48337 2.64668 8.71462 2.63626 8.94795 2.62793L9.15003 2.62168C9.90961 2.60317 10.6694 2.59519 11.4292 2.59772L13.5709 2.59668ZM12.5 7.80501C11.1187 7.80501 9.79394 8.35375 8.81718 9.3305C7.84043 10.3073 7.2917 11.632 7.2917 13.0133C7.2917 14.3947 7.84043 15.7194 8.81718 16.6962C9.79394 17.6729 11.1187 18.2217 12.5 18.2217C13.8814 18.2217 15.2061 17.6729 16.1829 16.6962C17.1596 15.7194 17.7084 14.3947 17.7084 13.0133C17.7084 11.632 17.1596 10.3073 16.1829 9.3305C15.2061 8.35375 13.8814 7.80501 12.5 7.80501ZM12.5 9.88835C12.9104 9.88828 13.3168 9.96904 13.696 10.126C14.0751 10.283 14.4197 10.5131 14.7099 10.8033C15.0001 11.0934 15.2304 11.4379 15.3875 11.817C15.5446 12.1961 15.6255 12.6024 15.6256 13.0128C15.6256 13.4232 15.5449 13.8296 15.3879 14.2088C15.2309 14.5879 15.0008 14.9325 14.7106 15.2227C14.4205 15.5129 14.076 15.7432 13.6969 15.9003C13.3178 16.0574 12.9115 16.1383 12.5011 16.1383C11.6723 16.1383 10.8774 15.8091 10.2914 15.2231C9.70531 14.637 9.37607 13.8421 9.37607 13.0133C9.37607 12.1845 9.70531 11.3897 10.2914 10.8036C10.8774 10.2176 11.6723 9.88835 12.5011 9.88835M17.9698 6.24251C17.6245 6.24251 17.2933 6.3797 17.0491 6.62388C16.8049 6.86807 16.6677 7.19926 16.6677 7.5446C16.6677 7.88993 16.8049 8.22112 17.0491 8.46531C17.2933 8.7095 17.6245 8.84668 17.9698 8.84668C18.3152 8.84668 18.6463 8.7095 18.8905 8.46531C19.1347 8.22112 19.2719 7.88993 19.2719 7.5446C19.2719 7.19926 19.1347 6.86807 18.8905 6.62388C18.6463 6.3797 18.3152 6.24251 17.9698 6.24251Z" fill="white"/>
</svg>
