<svg width="61" height="61" viewBox="0 0 61 61" fill="none" xmlns="http://www.w3.org/2000/svg">
<path d="M42.0435 30.5391C45.4841 30.5391 48.2515 27.7467 48.2515 24.3062C48.2515 20.8656 45.4841 18.0733 42.0435 18.0733C40.3905 18.0733 38.8051 18.7299 37.6362 19.8988C36.4673 21.0677 35.8106 22.6531 35.8106 24.3062C35.8106 25.9592 36.4673 27.5446 37.6362 28.7135C38.8051 29.8824 40.3905 30.5391 42.0435 30.5391ZM23.3448 28.0459C27.4834 28.0459 30.7993 24.7051 30.7993 20.5664C30.7993 16.4278 27.4834 13.0869 23.3448 13.0869C19.2061 13.0869 15.8653 16.4278 15.8653 20.5664C15.8653 24.7051 19.2061 28.0459 23.3448 28.0459ZM42.0435 35.5254C37.481 35.5254 28.3311 37.8192 28.3311 42.3817V45.4981C28.3311 46.8694 29.453 47.9913 30.8243 47.9913H53.2628C54.634 47.9913 55.756 46.8694 55.756 45.4981V42.3817C55.756 37.8192 46.606 35.5254 42.0435 35.5254ZM23.3448 33.0323C17.5357 33.0323 5.89258 35.9493 5.89258 41.7584V45.4981C5.89258 46.8694 7.0145 47.9913 8.38575 47.9913H23.3448V42.3817C23.3448 40.2625 24.1675 36.5476 29.2536 33.7304C27.0845 33.2816 24.9903 33.0323 23.3448 33.0323Z" fill="white"/>
</svg>
