<svg width="24" height="26" viewBox="0 0 24 26" fill="none" xmlns="http://www.w3.org/2000/svg">
<path d="M22.2129 6.40514C21.4494 6.7569 20.6398 6.98793 19.8109 7.09056C20.6839 6.54591 21.3372 5.68924 21.6489 4.68014C20.8289 5.18847 19.9299 5.54472 18.9939 5.73743C18.3645 5.03595 17.5302 4.57073 16.6208 4.41408C15.7114 4.25744 14.7778 4.41815 13.9651 4.87124C13.1525 5.32432 12.5063 6.04439 12.127 6.91951C11.7477 7.79462 11.6566 8.77574 11.8679 9.71035C10.2048 9.62367 8.57785 9.17361 7.09262 8.38937C5.60739 7.60514 4.29712 6.50428 3.24688 5.15827C2.87517 5.82332 2.67984 6.57933 2.68088 7.34889C2.68088 8.85931 3.41988 10.1937 4.54088 10.9749C3.8769 10.9531 3.22753 10.7663 2.64688 10.4301V10.4833C2.64685 11.4894 2.98091 12.4645 3.59241 13.2433C4.20391 14.0221 5.05519 14.5566 6.00188 14.7562C5.38552 14.9304 4.73917 14.956 4.11188 14.8312C4.3788 15.6972 4.89909 16.4546 5.59988 16.9972C6.30066 17.5399 7.14684 17.8406 8.01988 17.8572C7.15224 18.5671 6.15877 19.0918 5.09629 19.4014C4.03381 19.7109 2.92317 19.7993 1.82788 19.6614C3.7396 20.942 5.96499 21.6219 8.23788 21.6197C15.9319 21.6197 20.1379 14.9812 20.1379 9.22389C20.1379 9.03639 20.1339 8.84681 20.1259 8.66035C20.9443 8.04405 21.6507 7.28073 22.2119 6.40618" fill="white"/>
</svg>
